<svg xmlns="http://www.w3.org/2000/svg" xmlns:svg="http://www.w3.org/2000/svg" xmlns:xlink="http://www.w3.org/1999/xlink" id="svg4509" width="24" height="24" version="1.1" viewBox="0 0 6.35 6.35"><defs id="defs4503"><linearGradient id="linearGradient4538" x1="660.499" x2="672.472" y1="1592.818" y2="1580.68" gradientTransform="matrix(0.47307504,0,0,0.47307504,-1060.0019,831.52417)" gradientUnits="userSpaceOnUse" xlink:href="#linearGradient1546"/><linearGradient id="linearGradient1546"><stop id="stop1542" offset="0" style="stop-color:#1a237e;stop-opacity:1"/><stop id="stop1544" offset="1" style="stop-color:#536dfe;stop-opacity:1"/></linearGradient><linearGradient id="linearGradient4540" x1="681.102" x2="688.961" y1="1588.16" y2="1588.16" gradientTransform="matrix(0.47307506,0,0,0.47307506,420.69539,830.88029)" gradientUnits="userSpaceOnUse" xlink:href="#linearGradient1438"/><linearGradient id="linearGradient1438"><stop style="stop-color:#fff;stop-opacity:1" id="stop1434" offset="0"/><stop style="stop-color:#ccc;stop-opacity:1" id="stop1436" offset="1"/></linearGradient></defs><metadata id="metadata4506"/><g id="layer1" transform="translate(0,-290.64999)"><g id="g4685" transform="matrix(1.1400429,0,0,1.1400429,-845.89121,-1509.9495)"><rect id="rect4516" width="5.57" height="5.57" x="-747.552" y="1579.414" rx=".398" ry=".398" transform="scale(-1,1)" style="opacity:1;vector-effect:none;fill:url(#linearGradient4538);fill-opacity:1;stroke:none;stroke-width:.12516777;stroke-linecap:round;stroke-linejoin:round;stroke-miterlimit:4;stroke-dasharray:none;stroke-dashoffset:0;stroke-opacity:1"/><path id="path4518" d="m 743.9472,1580.5938 c -0.11437,0 -0.20658,0.091 -0.20658,0.2062 0,0.1137 0.0922,0.2063 0.20658,0.2063 h 1.02847 2.5e-4 c 0.11425,0 0.20633,0.091 0.20633,0.2061 0,0.1138 -0.0922,0.2061 -0.20658,0.2061 h -0.39237 c -0.11437,0 -0.20658,0.091 -0.20658,0.2062 0,0.1138 0.0922,0.206 0.20658,0.206 h 0.39237 c 0.11437,0 0.20658,0.091 0.20658,0.2063 0,0.1138 -0.0922,0.2063 -0.20658,0.2063 h -1.12699 c -0.11437,0 -0.20658,0.092 -0.20658,0.2061 0,0.1137 0.0922,0.206 0.20658,0.206 h 1.12699 c 0.11437,0 0.20658,0.091 0.20658,0.2061 0,0.1137 -0.0922,0.2064 -0.20658,0.2064 h -0.78964 c -0.11437,0 -0.20656,0.093 -0.20656,0.2061 0,0.1138 0.0921,0.206 0.20656,0.206 h 0.78964 c 0.11437,0 0.20631,0.093 0.20631,0.2061 0,0.1138 -0.0919,0.2064 -0.20631,0.2064 h -0.60775 c -0.11437,0 -0.20657,0.092 -0.20657,0.2062 0,0.1137 0.0921,0.2058 0.20657,0.2058 h 0.60775 1.55995 c 0.18861,0 0.34055,-0.1513 0.34055,-0.3396 v -2.0646 l -1.30889,-1.3065 h -0.59161 z m -0.58234,0.8247 c -0.11437,0 -0.20658,0.091 -0.20658,0.2061 0,0.1138 0.0922,0.2061 0.20658,0.2061 h 0.59895 c 0.11437,0 0.20634,-0.092 0.20634,-0.2061 0,-0.1138 -0.0919,-0.2061 -0.20634,-0.2061 z m 0.2017,1.6491 c -0.11414,0 -0.20658,0.091 -0.20658,0.2064 0,0.1138 0.0924,0.206 0.20658,0.206 0.11413,0 0.20657,-0.092 0.20657,-0.206 0,-0.1138 -0.0924,-0.2064 -0.20657,-0.2064 z m -0.2017,0.8249 c -0.11437,0 -0.20658,0.092 -0.20658,0.2062 0,0.1137 0.0922,0.2058 0.20658,0.2058 h 0.38334 c 0.11437,0 0.20656,-0.091 0.20656,-0.2058 0,-0.1138 -0.0922,-0.2062 -0.20656,-0.2062 z" style="opacity:.3;vector-effect:none;fill:#000;fill-opacity:1;fill-rule:evenodd;stroke:none;stroke-width:.02346896;stroke-linecap:round;stroke-linejoin:round;stroke-miterlimit:4;stroke-dasharray:none;stroke-dashoffset:0;stroke-opacity:1;paint-order:normal"/><path style="opacity:1;vector-effect:none;fill:url(#linearGradient4540);fill-opacity:1;fill-rule:evenodd;stroke:none;stroke-width:.62583899;stroke-linecap:round;stroke-linejoin:round;stroke-miterlimit:4;stroke-dasharray:none;stroke-dashoffset:0;stroke-opacity:1;paint-order:normal" id="path4520" d="m 743.69693,1580.3437 c -0.11437,0 -0.20671,0.091 -0.20671,0.2062 0,0.1138 0.0923,0.206 0.20671,0.206 h 1.02821 v 0 c 0.11426,0 0.20623,0.092 0.20623,0.2062 0,0.1138 -0.0923,0.2062 -0.20671,0.2062 h -0.3922 c -0.11437,0 -0.20647,0.091 -0.20647,0.206 0,0.1138 0.0921,0.2062 0.20647,0.2062 h 0.3922 c 0.11437,0 0.20671,0.093 0.20671,0.2062 0,0.1138 -0.0923,0.206 -0.20671,0.206 h -1.12681 c -0.11437,0 -0.20672,0.091 -0.20672,0.2062 0,0.1138 0.0923,0.2063 0.20672,0.2063 h 1.12681 c 0.11437,0 0.20671,0.091 0.20671,0.2059 0,0.1138 -0.0923,0.2063 -0.20671,0.2063 h -0.78952 c -0.11437,0 -0.20649,0.092 -0.20649,0.2063 0,0.1138 0.0921,0.2062 0.20649,0.2062 h 0.78952 c 0.11437,0 0.20671,0.091 0.20671,0.206 0,0.1138 -0.0923,0.2062 -0.20671,0.2062 h -0.6077 c -0.11437,0 -0.20648,0.093 -0.20648,0.2063 0,0.1137 0.0921,0.2059 0.20648,0.2059 h 0.6077 1.56026 c 0.18859,0 0.34045,-0.1514 0.34045,-0.3397 v -2.0645 0 l -1.30887,-1.3064 v 0 h -0.59184 z m -0.58231,0.8246 c -0.11437,0 -0.20672,0.091 -0.20672,0.206 0,0.1138 0.0923,0.2062 0.20672,0.2062 h 0.59867 c 0.11437,0 0.20671,-0.092 0.20671,-0.2062 0,-0.1138 -0.0923,-0.206 -0.20671,-0.206 z m 0.20158,1.6491 c -0.11402,0 -0.20672,0.092 -0.20672,0.2063 0,0.1138 0.0927,0.2062 0.20672,0.2062 0.11413,0 0.20648,-0.091 0.20648,-0.2062 0,-0.1138 -0.0923,-0.2063 -0.20648,-0.2063 z m -0.20158,0.8247 c -0.11437,0 -0.20672,0.093 -0.20672,0.2063 0,0.1137 0.0923,0.2062 0.20672,0.2062 h 0.38341 c 0.11437,0 0.20647,-0.091 0.20647,-0.2062 0,-0.1138 -0.0921,-0.2063 -0.20647,-0.2063 z"/><path style="opacity:.3;vector-effect:none;fill:#000;fill-opacity:1;fill-rule:evenodd;stroke:none;stroke-width:.62583894;stroke-linecap:round;stroke-linejoin:round;stroke-miterlimit:4;stroke-dasharray:none;stroke-dashoffset:0;stroke-opacity:1;paint-order:normal" id="path4522" d="m 746.62582,1581.6502 -1.30881,-1.3064 v 0.9666 c 0,0.1883 0.15182,0.3398 0.34043,0.3398 z"/><g id="g4528" transform="matrix(1.4127117,0,0,1.4127117,-306.41879,-664.72611)" style="stroke-width:.83894181"><path id="path4524" d="m 744.52046,1590.6805 0.0344,-0.034 0.0144,-0.014 0.02,-0.02 0.0144,-0.014 0.0407,-0.041 0.15521,0.1552 0.024,0.024 0.0481,-0.048 -0.024,-0.024 -0.15521,-0.1552 0.0378,-0.038 0.0172,-0.017 0.02,-0.02 0.0143,-0.014 0.0344,-0.034 -0.0684,5e-4 -0.0279,-5e-4 -0.0134,-7e-4 v 0 l -0.11335,2e-4 h -0.0127 -0.024 l -0.0336,-3e-4 3.5e-4,0.034 3.5e-4,0.034 1.5e-4,0.1102 v 0 l 5.6e-4,0.048 z" style="opacity:.3;vector-effect:none;fill:#000;fill-opacity:1;fill-rule:evenodd;stroke:none;stroke-width:.01661271;stroke-linecap:round;stroke-linejoin:round;stroke-miterlimit:4;stroke-dasharray:none;stroke-dashoffset:0;stroke-opacity:1;paint-order:normal"/><path id="path4526" d="m 744.90304,1590.8072 0.0672,7e-4 0.0475,6e-4 v 0 l 0.11016,10e-5 0.0336,4e-4 0.0336,3e-4 -3.5e-4,-0.034 v -0.024 l -10e-4,-0.013 2.1e-4,-0.1134 v 0 l -7e-4,-0.013 -4.3e-4,-0.028 5e-4,-0.068 -0.0344,0.034 -0.0144,0.014 -0.0201,0.02 -0.0172,0.017 -0.0378,0.038 -0.15535,-0.1553 -0.024,-0.024 -0.0482,0.048 0.024,0.024 0.15535,0.1554 -0.0407,0.041 -0.0144,0.014 -0.02,0.02 -0.0137,0.014 z" style="opacity:.3;vector-effect:none;fill:#000;fill-opacity:1;fill-rule:evenodd;stroke:none;stroke-width:.01661271;stroke-linecap:round;stroke-linejoin:round;stroke-miterlimit:4;stroke-dasharray:none;stroke-dashoffset:0;stroke-opacity:1;paint-order:normal"/></g><g id="g4534" transform="matrix(0,-1.1590163,-1.1590163,0,2590.5925,2450.1055)" style="opacity:.3;fill:#000;fill-opacity:1;stroke-width:1.02257657"><path id="path4530" d="m 747.5087,1591.5528 h 0.62269 c 0,-0.092 -0.0412,-0.1802 -0.11266,-0.2393 l 0.0589,-0.059 c 0.011,-0.011 0.011,-0.029 0,-0.041 -0.011,-0.011 -0.0288,-0.011 -0.0398,0 l -0.0672,0.067 c -0.046,-0.026 -0.098,-0.039 -0.15036,-0.039 -0.053,0 -0.10428,0.014 -0.15039,0.039 l -0.0661,-0.067 c -0.01,-0.01 -0.0131,-0.01 -0.0201,-0.01 h -0.002 c -0.01,0 -0.0146,0 -0.0196,0.01 -0.011,0.011 -0.011,0.03 0,0.041 l 0.0589,0.059 c -0.071,0.059 -0.11263,0.1468 -0.11263,0.2393 z m 0.12348,-0.1075 a 0.03704167,0.03704167 0 0 1 0.0367,-0.037 0.03704167,0.03704167 0 0 1 0.0372,0.037 0.03704167,0.03704167 0 0 1 -0.0372,0.037 0.03704167,0.03704167 0 0 1 -0.0367,-0.035 z m 0.30077,10e-4 a 0.03704167,0.03704167 0 0 1 0.0372,-0.037 0.03704167,0.03704167 0 0 1 0.0372,0.037 0.03704167,0.03704167 0 0 1 -0.0372,0.037 0.03704167,0.03704167 0 0 1 -0.0372,-0.034 z" style="opacity:1;vector-effect:none;fill:#000;fill-opacity:1;fill-rule:evenodd;stroke:none;stroke-width:2.70556712;stroke-linecap:round;stroke-linejoin:round;stroke-miterlimit:4;stroke-dasharray:none;stroke-dashoffset:0;stroke-opacity:1;paint-order:normal"/><path id="path4532" d="m 747.5084,1592.0309 c 0,0.016 0.013,0.028 0.0282,0.028 0.0162,0 0.0287,-0.012 0.0287,-0.028 v -0.07 c 0,-0.016 -0.0136,-0.028 -0.0287,-0.028 -0.0162,0 -0.0282,0.012 -0.0282,0.028 z m 0,-0.151 c 0,0.016 0.013,0.028 0.0282,0.028 0.0162,0 0.0282,-0.013 0.0282,-0.028 v -0.017 -0.097 c 0,-0.016 0.0131,-0.028 0.0282,-0.028 0.0162,0 0.0282,0.013 0.0282,0.028 v 0.045 c 0,0.016 0.0136,0.028 0.0287,0.028 0.0162,0 0.0282,-0.013 0.0282,-0.028 v -0.045 c 0,-0.016 0.0131,-0.028 0.0282,-0.028 0.0162,0 0.0282,0.013 0.0282,0.028 v 0.2572 c 0,0.016 0.013,0.028 0.0282,0.028 0.0162,0 0.0282,-0.012 0.0282,-0.028 v -0.2572 c 0,-0.016 0.0136,-0.028 0.0287,-0.028 0.0162,0 0.0282,0.013 0.0282,0.028 v 0.1067 c 0,0.016 0.0131,0.028 0.0282,0.028 0.0162,0 0.0282,-0.013 0.0282,-0.028 v -0.1067 c 0,-0.016 0.0131,-0.028 0.0282,-0.028 0.0162,0 0.0287,0.013 0.0287,0.028 v 0.2243 c 0,0.016 0.0131,0.028 0.0282,0.028 0.0162,0 0.0282,-0.012 0.0282,-0.028 v -0.2243 c 0,-0.016 0.013,-0.028 0.0282,-0.028 0.0162,0 0.0282,0.013 0.0282,0.028 v 0.1908 c 0,0.016 0.0131,0.028 0.0282,0.028 0.0162,0 0.0287,-0.013 0.0287,-0.028 v -0.1908 c 4.1e-4,-0.029 0,-0.02 0,-0.029 v -0.1469 l -0.62317,-6e-4 v 0.147 c 0,0.01 0,0.015 5.1e-4,0.022 -5.1e-4,0 -5.1e-4,0 -5.1e-4,0.01 z m 0.11449,0.1745 c 0,0.016 0.0131,0.029 0.0282,0.029 0.0162,0 0.0282,-0.013 0.0282,-0.029 v -0.026 c 0,-0.016 -0.0131,-0.028 -0.0282,-0.028 -0.0162,0 -0.0282,0.013 -0.0282,0.028 z m 0,-0.1077 c 0,0.016 0.0131,0.028 0.0282,0.028 0.0162,0 0.0282,-0.013 0.0282,-0.028 v -0.057 c 0,-0.016 -0.0131,-0.028 -0.0282,-0.028 -0.0162,0 -0.0282,0.013 -0.0282,0.028 z m 0.22899,0.1109 c 0,0.016 0.013,0.028 0.0282,0.028 0.0162,0 0.0282,-0.013 0.0282,-0.028 v -0.1036 c 0,-0.016 -0.0131,-0.028 -0.0282,-0.028 -0.0162,0 -0.0282,0.013 -0.0282,0.028 z m 0.22321,-0.014 c 0,0.016 0.013,0.028 0.0282,0.028 0.0162,0 0.0282,-0.013 0.0282,-0.028 v -0.01 c 0,-0.016 -0.0131,-0.028 -0.0282,-0.028 -0.0162,0 -0.0282,0.013 -0.0282,0.028 z" style="opacity:1;vector-effect:none;fill:#000;fill-opacity:1;fill-rule:evenodd;stroke:none;stroke-width:2.70556736;stroke-linecap:round;stroke-linejoin:round;stroke-miterlimit:4;stroke-dasharray:none;stroke-dashoffset:0;stroke-opacity:1;paint-order:normal"/></g></g></g></svg>